<?xml version="1.0" encoding="UTF-8" standalone="no"?>
<svg
   version="1.2"
   viewBox="0 0 15375 17876"
   fill-rule="evenodd"
   clip-path="url(#presentation_clip_path)"
   stroke-width="28.222"
   stroke-linejoin="round"
   xml:space="preserve"
   id="svg141"
   sodipodi:docname="export-html.svg"
   inkscape:version="1.2.2 (b0a8486541, 2022-12-01)"
   xmlns:inkscape="http://www.inkscape.org/namespaces/inkscape"
   xmlns:sodipodi="http://sodipodi.sourceforge.net/DTD/sodipodi-0.dtd"
   xmlns="http://www.w3.org/2000/svg"
   xmlns:svg="http://www.w3.org/2000/svg"
   xmlns:ooo="http://xml.openoffice.org/svg/export"><sodipodi:namedview
   id="namedview143"
   pagecolor="#ffffff"
   bordercolor="#666666"
   borderopacity="1.0"
   inkscape:showpageshadow="2"
   inkscape:pageopacity="0.0"
   inkscape:pagecheckerboard="0"
   inkscape:deskcolor="#d1d1d1"
   showgrid="false"
   inkscape:zoom="0.057786977"
   inkscape:cx="7683.3921"
   inkscape:cy="8989.9148"
   inkscape:current-layer="svg141" />
 <defs
   class="ClipPathGroup"
   id="defs5">
  <clipPath
   id="presentation_clip_path"
   clipPathUnits="userSpaceOnUse">
   <rect
   x="0"
   y="0"
   width="15375"
   height="17876"
   id="rect2" />
  </clipPath>
 
  
 
   
  
    
   
     
     
     
     
     
     
     
     
     
     
     
     
     
     
     
    <clipPath
   clipPathUnits="userSpaceOnUse"
   id="clipPath653"><g
     id="g659"><g
       id="g657"><rect
         x="0"
         y="0"
         width="15375"
         height="17876"
         id="rect655" /></g></g></clipPath><clipPath
   clipPathUnits="userSpaceOnUse"
   id="clipPath669"><g
     id="g675"><g
       id="g673"><rect
         x="0"
         y="0"
         width="15375"
         height="17876"
         id="rect671" /></g></g></clipPath><clipPath
   clipPathUnits="userSpaceOnUse"
   id="clipPath677"><g
     id="g683"><g
       id="g681"><rect
         x="0"
         y="0"
         width="15375"
         height="17876"
         id="rect679" /></g></g></clipPath><clipPath
   clipPathUnits="userSpaceOnUse"
   id="clipPath685"><g
     id="g691"><g
       id="g689"><rect
         x="0"
         y="0"
         width="15375"
         height="17876"
         id="rect687" /></g></g></clipPath><clipPath
   clipPathUnits="userSpaceOnUse"
   id="clipPath693"><g
     id="g699"><g
       id="g697"><rect
         x="0"
         y="0"
         width="15375"
         height="17876"
         id="rect695" /></g></g></clipPath><clipPath
   clipPathUnits="userSpaceOnUse"
   id="clipPath701"><g
     id="g707"><g
       id="g705"><rect
         x="0"
         y="0"
         width="15375"
         height="17876"
         id="rect703" /></g></g></clipPath><clipPath
   clipPathUnits="userSpaceOnUse"
   id="clipPath709"><g
     id="g715"><g
       id="g713"><rect
         x="0"
         y="0"
         width="15375"
         height="17876"
         id="rect711" /></g></g></clipPath><clipPath
   clipPathUnits="userSpaceOnUse"
   id="clipPath717"><g
     id="g723"><g
       id="g721"><rect
         x="0"
         y="0"
         width="15375"
         height="17876"
         id="rect719" /></g></g></clipPath><clipPath
   clipPathUnits="userSpaceOnUse"
   id="clipPath725"><g
     id="g731"><g
       id="g729"><rect
         x="0"
         y="0"
         width="15375"
         height="17876"
         id="rect727" /></g></g></clipPath><clipPath
   clipPathUnits="userSpaceOnUse"
   id="clipPath733"><g
     id="g739"><g
       id="g737"><rect
         x="0"
         y="0"
         width="15375"
         height="17876"
         id="rect735" /></g></g></clipPath><clipPath
   clipPathUnits="userSpaceOnUse"
   id="clipPath741"><g
     id="g747"><g
       id="g745"><rect
         x="0"
         y="0"
         width="15375"
         height="17876"
         id="rect743" /></g></g></clipPath><clipPath
   clipPathUnits="userSpaceOnUse"
   id="clipPath749"><g
     id="g755"><g
       id="g753"><rect
         x="0"
         y="0"
         width="15375"
         height="17876"
         id="rect751" /></g></g></clipPath><clipPath
   clipPathUnits="userSpaceOnUse"
   id="clipPath757"><g
     id="g763"><g
       id="g761"><rect
         x="0"
         y="0"
         width="15375"
         height="17876"
         id="rect759" /></g></g></clipPath><clipPath
   clipPathUnits="userSpaceOnUse"
   id="clipPath765"><g
     id="g771"><g
       id="g769"><rect
         x="0"
         y="0"
         width="15375"
         height="17876"
         id="rect767" /></g></g></clipPath>
      
     <clipPath
   clipPathUnits="userSpaceOnUse"
   id="clipPath853"><g
     id="g861"
     style="stroke-width:38.8542"
     transform="matrix(0.72942982,0,0,0.72329534,5337.2099,4153.4071)"><g
       id="g859"
       style="stroke-width:28.222"
       transform="matrix(1.3709338,0,0,1.3825611,-7316.9615,-5742.3391)"><g
         id="g857"
         style="stroke-width:28.222"><rect
           x="0"
           y="0"
           width="15375"
           height="17876"
           id="rect855"
           style="stroke-width:28.222" /></g></g></g></clipPath></defs>
 <defs
   class="TextShapeIndex"
   id="defs9">
  <g
   ooo:slide="id1"
   ooo:id-list="id3 id4 id5 id6 id7 id8 id9 id10 id11 id12 id13 id14 id15 id16 id17"
   id="g7" />
 </defs>
 <defs
   class="EmbeddedBulletChars"
   id="defs38">
  <g
   id="bullet-char-template(57356)"
   transform="scale(0.00048828125,-0.00048828125)">
   <path
   d="M 580,1141 L 1163,571 580,0 -4,571 580,1141 Z"
   id="path11" />
  </g>
  <g
   id="bullet-char-template(57354)"
   transform="scale(0.00048828125,-0.00048828125)">
   <path
   d="M 8,1128 L 1137,1128 1137,0 8,0 8,1128 Z"
   id="path14" />
  </g>
  <g
   id="bullet-char-template(10146)"
   transform="scale(0.00048828125,-0.00048828125)">
   <path
   d="M 174,0 L 602,739 174,1481 1456,739 174,0 Z M 1358,739 L 309,1346 659,739 1358,739 Z"
   id="path17" />
  </g>
  <g
   id="bullet-char-template(10132)"
   transform="scale(0.00048828125,-0.00048828125)">
   <path
   d="M 2015,739 L 1276,0 717,0 1260,543 174,543 174,936 1260,936 717,1481 1274,1481 2015,739 Z"
   id="path20" />
  </g>
  <g
   id="bullet-char-template(10007)"
   transform="scale(0.00048828125,-0.00048828125)">
   <path
   d="M 0,-2 C -7,14 -16,27 -25,37 L 356,567 C 262,823 215,952 215,954 215,979 228,992 255,992 264,992 276,990 289,987 310,991 331,999 354,1012 L 381,999 492,748 772,1049 836,1024 860,1049 C 881,1039 901,1025 922,1006 886,937 835,863 770,784 769,783 710,716 594,584 L 774,223 C 774,196 753,168 711,139 L 727,119 C 717,90 699,76 672,76 641,76 570,178 457,381 L 164,-76 C 142,-110 111,-127 72,-127 30,-127 9,-110 8,-76 1,-67 -2,-52 -2,-32 -2,-23 -1,-13 0,-2 Z"
   id="path23" />
  </g>
  <g
   id="bullet-char-template(10004)"
   transform="scale(0.00048828125,-0.00048828125)">
   <path
   d="M 285,-33 C 182,-33 111,30 74,156 52,228 41,333 41,471 41,549 55,616 82,672 116,743 169,778 240,778 293,778 328,747 346,684 L 369,508 C 377,444 397,411 428,410 L 1163,1116 C 1174,1127 1196,1133 1229,1133 1271,1133 1292,1118 1292,1087 L 1292,965 C 1292,929 1282,901 1262,881 L 442,47 C 390,-6 338,-33 285,-33 Z"
   id="path26" />
  </g>
  <g
   id="bullet-char-template(9679)"
   transform="scale(0.00048828125,-0.00048828125)">
   <path
   d="M 813,0 C 632,0 489,54 383,161 276,268 223,411 223,592 223,773 276,916 383,1023 489,1130 632,1184 813,1184 992,1184 1136,1130 1245,1023 1353,916 1407,772 1407,592 1407,412 1353,268 1245,161 1136,54 992,0 813,0 Z"
   id="path29" />
  </g>
  <g
   id="bullet-char-template(8226)"
   transform="scale(0.00048828125,-0.00048828125)">
   <path
   d="M 346,457 C 273,457 209,483 155,535 101,586 74,649 74,723 74,796 101,859 155,911 209,963 273,989 346,989 419,989 480,963 531,910 582,859 608,796 608,723 608,648 583,586 532,535 482,483 420,457 346,457 Z"
   id="path32" />
  </g>
  <g
   id="bullet-char-template(8211)"
   transform="scale(0.00048828125,-0.00048828125)">
   <path
   d="M -4,459 L 1135,459 1135,606 -4,606 -4,459 Z"
   id="path35" />
  </g>
 </defs>
 <defs
   class="TextEmbeddedBitmaps"
   id="defs40" />
 <g
   id="g45">
  <g
   id="id2"
   class="Master_Slide">
   <g
   id="bg-id2"
   class="Background" />
   <g
   id="bo-id2"
   class="BackgroundObjects" />
  </g>
 </g>
 <g
   class="com.sun.star.drawing.PolyPolygonShape"
   id="g50"
   clip-path="url(#clipPath765)">
      <g
   id="id3">
       <path
   fill="#000000"
   stroke="none"
   d="M 1,-1 V 0 0 H 0 Z"
   id="path47" />
      </g>
     </g><g
   class="com.sun.star.drawing.PolyPolygonShape"
   id="g55"
   clip-path="url(#clipPath757)">
      <g
   id="id4">
       <path
   fill="#000000"
   stroke="none"
   d="M 0,-1 H 1 V 0 H 0 Z"
   id="path52" />
      </g>
     </g><g
   class="com.sun.star.drawing.PolyPolygonShape"
   id="g60"
   clip-path="url(#clipPath749)">
      <g
   id="id5">
       <path
   fill="#000000"
   stroke="none"
   d="M 0,1 1,0 0,-1 2,0 Z M 1,0 0,-1 Z"
   id="path57" />
      </g>
     </g><g
   class="com.sun.star.drawing.PolyPolygonShape"
   id="g65"
   clip-path="url(#clipPath741)">
      <g
   id="id6">
       <path
   fill="#000000"
   stroke="none"
   d="M 2,0 1,1 V 1 0 H 0 v 0 h 1 v -1 0 z"
   id="path62" />
      </g>
     </g><g
   class="com.sun.star.drawing.ClosedBezierShape"
   id="g70"
   clip-path="url(#clipPath733)">
      <g
   id="id7">
       <path
   fill="#000000"
   stroke="none"
   d="m 0,0 v 0 0 c 0,-1 0,-1 0,-1 v 0 0 0 0 h 1 v 0 0 0 0 0 1 0 0 0 0 0 z"
   id="path67" />
      </g>
     </g><g
   class="com.sun.star.drawing.ClosedBezierShape"
   id="g75"
   clip-path="url(#clipPath725)">
      <g
   id="id8">
       <path
   fill="#000000"
   stroke="none"
   d="m 0,0 v 0 0 0 c 0,-1 0,-1 0,-1 v 1 0 0 l 1,-1 v 0 c 1,0 1,0 1,0 v 0 H 1 Z"
   id="path72" />
      </g>
     </g><g
   class="com.sun.star.drawing.ClosedBezierShape"
   id="g80"
   clip-path="url(#clipPath717)">
      <g
   id="id9">
       <path
   fill="#000000"
   stroke="none"
   d="M 1,0 C 0,0 0,0 0,0 v 0 -1 h 1 v 0 z"
   id="path77" />
      </g>
     </g><g
   class="com.sun.star.drawing.PolyPolygonShape"
   id="g85"
   clip-path="url(#clipPath709)">
      <g
   id="id10">
       <path
   fill="#000000"
   stroke="none"
   d="M 0,-1 Z"
   id="path82" />
      </g>
     </g><g
   class="com.sun.star.drawing.PolyPolygonShape"
   id="g90"
   clip-path="url(#clipPath701)">
      <g
   id="id11">
       <path
   fill="#000000"
   stroke="none"
   d="M 0,0 H 1 V 0 Z"
   id="path87" />
      </g>
     </g><g
   class="com.sun.star.drawing.PolyPolygonShape"
   id="g95"
   clip-path="url(#clipPath693)">
      <g
   id="id12">
       <path
   fill="#ffffff"
   stroke="none"
   d="M 1437,16440 V 1439 h 8334 l 4167,4167 v 10834 z"
   id="path92" />
      </g>
     </g><g
   class="com.sun.star.drawing.PolyPolygonShape"
   id="g100"
   clip-path="url(#clipPath685)">
      <g
   id="id13">
       <path
   fill="none"
   stroke="#000000"
   stroke-width="375"
   stroke-linejoin="round"
   d="M 1437,16440 V 1439 h 8334 l 4167,4167 v 10834 z"
   id="path97" />
      </g>
     </g><g
   class="com.sun.star.drawing.PolyPolygonShape"
   id="g105"
   clip-path="url(#clipPath677)">
      <g
   id="id14">
       <path
   fill="#b2b2b2"
   stroke="none"
   d="m 9770,1437 4168,4168 H 9770 Z m 0,0 z m 4168,4168 z"
   id="path102" />
      </g>
     </g><g
   class="com.sun.star.drawing.PolyPolygonShape"
   id="g110"
   clip-path="url(#clipPath669)">
      <g
   id="id15">
       <path
   fill="none"
   stroke="#000000"
   stroke-width="375"
   stroke-linejoin="round"
   d="m 9770,1437 4168,4168 H 9770 Z"
   id="path107" />
      </g>
     </g><g
   class="com.sun.star.drawing.CustomShape"
   id="g132"
   clip-path="url(#clipPath653)"
   transform="matrix(1.5818819,0,0,1.5963116,-9766.0188,-9928.5842)"
   style="fill:#441650;stroke:#441650;stroke-width:17.7599">
      <g
   id="id17"
   style="fill:#441650;stroke:#441650;stroke-width:17.7599">
       <path
   fill="#3399ff"
   stroke="none"
   d="m 7600,14303 h 428 v 696 h -428 z m 700,-1803 h 447 v 874 h 490 v -874 h 450 v 2499 h -450 v -1012 h -490 v 1012 h -447 z m 1582,0 h 1360 v 617 h -456 v 1882 h -447 v -1882 h -457 z m 1558,0 h 588 l 227,1519 227,-1519 h 586 v 2499 h -365 v -1907 l -283,1907 h -331 l -283,-1907 v 1907 h -366 z m 1914,0 h 448 v 1883 h 697 v 616 h -1145 z"
   id="path119"
   style="fill:#441650;stroke:#441650;stroke-width:12.9" />
       <path
   fill="none"
   stroke="#000000"
   stroke-width="16.3617"
   stroke-linejoin="miter"
   d="m 7600,14303 h 428 v 696 h -428 z"
   id="path121"
   style="fill:#441650;stroke:#441650" />
       <path
   fill="none"
   stroke="#000000"
   stroke-width="16.3617"
   stroke-linejoin="miter"
   d="m 8300,12500 h 447 v 874 h 490 v -874 h 450 v 2499 h -450 v -1012 h -490 v 1012 h -447 z"
   id="path123"
   style="fill:#441650;stroke:#441650" />
       <path
   fill="none"
   stroke="#000000"
   stroke-width="16.3617"
   stroke-linejoin="miter"
   d="m 9882,12500 h 1360 v 617 h -456 v 1882 h -447 v -1882 h -457 z"
   id="path125"
   style="fill:#441650;stroke:#441650" />
       <path
   fill="none"
   stroke="#000000"
   stroke-width="16.3617"
   stroke-linejoin="miter"
   d="m 11440,12500 h 588 l 227,1519 227,-1519 h 586 v 2499 h -365 v -1907 l -283,1907 h -331 l -283,-1907 v 1907 h -366 z"
   id="path127"
   style="fill:#441650;stroke:#441650" />
       <path
   fill="none"
   stroke="#000000"
   stroke-width="16.3617"
   stroke-linejoin="miter"
   d="m 13354,12500 h 448 v 1883 h 697 v 616 h -1145 z"
   id="path129"
   style="fill:#441650;stroke:#441650" />
      </g>
     </g>
   
  
</svg>
