<?xml version="1.0" encoding="UTF-8" standalone="no"?>
<svg
   version="1.2"
   viewBox="0 0 15375 17876"
   fill-rule="evenodd"
   clip-path="url(#presentation_clip_path)"
   stroke-width="28.222"
   stroke-linejoin="round"
   xml:space="preserve"
   id="svg405"
   sodipodi:docname="export-odt.svg"
   inkscape:version="1.4 (e7c3feb100, 2024-10-09)"
   xmlns:inkscape="http://www.inkscape.org/namespaces/inkscape"
   xmlns:sodipodi="http://sodipodi.sourceforge.net/DTD/sodipodi-0.dtd"
   xmlns="http://www.w3.org/2000/svg"
   xmlns:svg="http://www.w3.org/2000/svg"
   xmlns:ooo="http://xml.openoffice.org/svg/export"><sodipodi:namedview
   id="namedview407"
   pagecolor="#ffffff"
   bordercolor="#666666"
   borderopacity="1.0"
   inkscape:showpageshadow="2"
   inkscape:pageopacity="0.0"
   inkscape:pagecheckerboard="0"
   inkscape:deskcolor="#d1d1d1"
   showgrid="false"
   inkscape:zoom="0.055811156"
   inkscape:cx="7310.3664"
   inkscape:cy="8313.75"
   inkscape:current-layer="id17" />
 <defs
   class="ClipPathGroup"
   id="defs271"><rect
   x="4049.3553"
   y="6714.3156"
   width="1488.2246"
   height="1522.8345"
   id="rect1" />
  <clipPath
   id="presentation_clip_path"
   clipPathUnits="userSpaceOnUse">
   <rect
   x="0"
   y="0"
   width="15375"
   height="17876"
   id="rect268" />
  </clipPath>
 
  
 
   
  
    
   
     
     
     
     
     
     
     
     
     
     
     
     
     
     
     
    <clipPath
   clipPathUnits="userSpaceOnUse"
   id="clipPath907"><g
     id="g913"><g
       id="g911"><rect
         x="0"
         y="0"
         width="15375"
         height="17876"
         id="rect909" /></g></g></clipPath><clipPath
   clipPathUnits="userSpaceOnUse"
   id="clipPath923"><g
     id="g929"><g
       id="g927"><rect
         x="0"
         y="0"
         width="15375"
         height="17876"
         id="rect925" /></g></g></clipPath><clipPath
   clipPathUnits="userSpaceOnUse"
   id="clipPath931"><g
     id="g937"><g
       id="g935"><rect
         x="0"
         y="0"
         width="15375"
         height="17876"
         id="rect933" /></g></g></clipPath><clipPath
   clipPathUnits="userSpaceOnUse"
   id="clipPath939"><g
     id="g945"><g
       id="g943"><rect
         x="0"
         y="0"
         width="15375"
         height="17876"
         id="rect941" /></g></g></clipPath><clipPath
   clipPathUnits="userSpaceOnUse"
   id="clipPath947"><g
     id="g953"><g
       id="g951"><rect
         x="0"
         y="0"
         width="15375"
         height="17876"
         id="rect949" /></g></g></clipPath><clipPath
   clipPathUnits="userSpaceOnUse"
   id="clipPath955"><g
     id="g961"><g
       id="g959"><rect
         x="0"
         y="0"
         width="15375"
         height="17876"
         id="rect957" /></g></g></clipPath><clipPath
   clipPathUnits="userSpaceOnUse"
   id="clipPath963"><g
     id="g969"><g
       id="g967"><rect
         x="0"
         y="0"
         width="15375"
         height="17876"
         id="rect965" /></g></g></clipPath><clipPath
   clipPathUnits="userSpaceOnUse"
   id="clipPath971"><g
     id="g977"><g
       id="g975"><rect
         x="0"
         y="0"
         width="15375"
         height="17876"
         id="rect973" /></g></g></clipPath><clipPath
   clipPathUnits="userSpaceOnUse"
   id="clipPath979"><g
     id="g985"><g
       id="g983"><rect
         x="0"
         y="0"
         width="15375"
         height="17876"
         id="rect981" /></g></g></clipPath><clipPath
   clipPathUnits="userSpaceOnUse"
   id="clipPath987"><g
     id="g993"><g
       id="g991"><rect
         x="0"
         y="0"
         width="15375"
         height="17876"
         id="rect989" /></g></g></clipPath><clipPath
   clipPathUnits="userSpaceOnUse"
   id="clipPath995"><g
     id="g1001"><g
       id="g999"><rect
         x="0"
         y="0"
         width="15375"
         height="17876"
         id="rect997" /></g></g></clipPath><clipPath
   clipPathUnits="userSpaceOnUse"
   id="clipPath1003"><g
     id="g1009"><g
       id="g1007"><rect
         x="0"
         y="0"
         width="15375"
         height="17876"
         id="rect1005" /></g></g></clipPath><clipPath
   clipPathUnits="userSpaceOnUse"
   id="clipPath1011"><g
     id="g1017"><g
       id="g1015"><rect
         x="0"
         y="0"
         width="15375"
         height="17876"
         id="rect1013" /></g></g></clipPath><clipPath
   clipPathUnits="userSpaceOnUse"
   id="clipPath1019"><g
     id="g1025"><g
       id="g1023"><rect
         x="0"
         y="0"
         width="15375"
         height="17876"
         id="rect1021" /></g></g></clipPath>
      
     <clipPath
   clipPathUnits="userSpaceOnUse"
   id="clipPath644"><g
     id="g652"
     style="stroke-width:38.3622"
     transform="matrix(0.73867868,0,0,0.73267701,5276.989,4136.3777)"><g
       id="g650"
       style="stroke-width:28.222"
       transform="matrix(1.3537686,0,0,1.3648579,-7143.822,-5645.5678)"><g
         id="g648"
         style="stroke-width:28.222"><rect
           x="0"
           y="0"
           width="15375"
           height="17876"
           id="rect646"
           style="stroke-width:28.222" /></g></g></g></clipPath></defs>
 <defs
   class="TextShapeIndex"
   id="defs275">
  <g
   ooo:slide="id1"
   ooo:id-list="id3 id4 id5 id6 id7 id8 id9 id10 id11 id12 id13 id14 id15 id16 id17"
   id="g273" />
 </defs>
 <defs
   class="EmbeddedBulletChars"
   id="defs304">
  <g
   id="bullet-char-template(57356)"
   transform="scale(0.00048828125,-0.00048828125)">
   <path
   d="M 580,1141 L 1163,571 580,0 -4,571 580,1141 Z"
   id="path277" />
  </g>
  <g
   id="bullet-char-template(57354)"
   transform="scale(0.00048828125,-0.00048828125)">
   <path
   d="M 8,1128 L 1137,1128 1137,0 8,0 8,1128 Z"
   id="path280" />
  </g>
  <g
   id="bullet-char-template(10146)"
   transform="scale(0.00048828125,-0.00048828125)">
   <path
   d="M 174,0 L 602,739 174,1481 1456,739 174,0 Z M 1358,739 L 309,1346 659,739 1358,739 Z"
   id="path283" />
  </g>
  <g
   id="bullet-char-template(10132)"
   transform="scale(0.00048828125,-0.00048828125)">
   <path
   d="M 2015,739 L 1276,0 717,0 1260,543 174,543 174,936 1260,936 717,1481 1274,1481 2015,739 Z"
   id="path286" />
  </g>
  <g
   id="bullet-char-template(10007)"
   transform="scale(0.00048828125,-0.00048828125)">
   <path
   d="M 0,-2 C -7,14 -16,27 -25,37 L 356,567 C 262,823 215,952 215,954 215,979 228,992 255,992 264,992 276,990 289,987 310,991 331,999 354,1012 L 381,999 492,748 772,1049 836,1024 860,1049 C 881,1039 901,1025 922,1006 886,937 835,863 770,784 769,783 710,716 594,584 L 774,223 C 774,196 753,168 711,139 L 727,119 C 717,90 699,76 672,76 641,76 570,178 457,381 L 164,-76 C 142,-110 111,-127 72,-127 30,-127 9,-110 8,-76 1,-67 -2,-52 -2,-32 -2,-23 -1,-13 0,-2 Z"
   id="path289" />
  </g>
  <g
   id="bullet-char-template(10004)"
   transform="scale(0.00048828125,-0.00048828125)">
   <path
   d="M 285,-33 C 182,-33 111,30 74,156 52,228 41,333 41,471 41,549 55,616 82,672 116,743 169,778 240,778 293,778 328,747 346,684 L 369,508 C 377,444 397,411 428,410 L 1163,1116 C 1174,1127 1196,1133 1229,1133 1271,1133 1292,1118 1292,1087 L 1292,965 C 1292,929 1282,901 1262,881 L 442,47 C 390,-6 338,-33 285,-33 Z"
   id="path292" />
  </g>
  <g
   id="bullet-char-template(9679)"
   transform="scale(0.00048828125,-0.00048828125)">
   <path
   d="M 813,0 C 632,0 489,54 383,161 276,268 223,411 223,592 223,773 276,916 383,1023 489,1130 632,1184 813,1184 992,1184 1136,1130 1245,1023 1353,916 1407,772 1407,592 1407,412 1353,268 1245,161 1136,54 992,0 813,0 Z"
   id="path295" />
  </g>
  <g
   id="bullet-char-template(8226)"
   transform="scale(0.00048828125,-0.00048828125)">
   <path
   d="M 346,457 C 273,457 209,483 155,535 101,586 74,649 74,723 74,796 101,859 155,911 209,963 273,989 346,989 419,989 480,963 531,910 582,859 608,796 608,723 608,648 583,586 532,535 482,483 420,457 346,457 Z"
   id="path298" />
  </g>
  <g
   id="bullet-char-template(8211)"
   transform="scale(0.00048828125,-0.00048828125)">
   <path
   d="M -4,459 L 1135,459 1135,606 -4,606 -4,459 Z"
   id="path301" />
  </g>
 </defs>
 <defs
   class="TextEmbeddedBitmaps"
   id="defs306" />
 <g
   id="g311">
  <g
   id="id2"
   class="Master_Slide">
   <g
   id="bg-id2"
   class="Background" />
   <g
   id="bo-id2"
   class="BackgroundObjects" />
  </g>
 </g>
 <g
   class="com.sun.star.drawing.PolyPolygonShape"
   id="g316"
   clip-path="url(#clipPath1019)">
      <g
   id="id3">
       <path
   fill="#000000"
   stroke="none"
   d="M 1,-1 V 0 0 H 0 Z"
   id="path313" />
      </g>
     </g><g
   class="com.sun.star.drawing.PolyPolygonShape"
   id="g321"
   clip-path="url(#clipPath1011)">
      <g
   id="id4">
       <path
   fill="#000000"
   stroke="none"
   d="M 0,-1 H 1 V 0 H 0 Z"
   id="path318" />
      </g>
     </g><g
   class="com.sun.star.drawing.PolyPolygonShape"
   id="g326"
   clip-path="url(#clipPath1003)">
      <g
   id="id5">
       <path
   fill="#000000"
   stroke="none"
   d="M 0,1 1,0 0,-1 2,0 Z M 1,0 0,-1 Z"
   id="path323" />
      </g>
     </g><g
   class="com.sun.star.drawing.PolyPolygonShape"
   id="g331"
   clip-path="url(#clipPath995)">
      <g
   id="id6">
       <path
   fill="#000000"
   stroke="none"
   d="M 2,0 1,1 V 1 0 H 0 v 0 h 1 v -1 0 z"
   id="path328" />
      </g>
     </g><g
   class="com.sun.star.drawing.ClosedBezierShape"
   id="g336"
   clip-path="url(#clipPath987)">
      <g
   id="id7">
       <path
   fill="#000000"
   stroke="none"
   d="m 0,0 v 0 0 c 0,-1 0,-1 0,-1 v 0 0 0 0 h 1 v 0 0 0 0 0 1 0 0 0 0 0 z"
   id="path333" />
      </g>
     </g><g
   class="com.sun.star.drawing.ClosedBezierShape"
   id="g341"
   clip-path="url(#clipPath979)">
      <g
   id="id8">
       <path
   fill="#000000"
   stroke="none"
   d="m 0,0 v 0 0 0 c 0,-1 0,-1 0,-1 v 1 0 0 l 1,-1 v 0 c 1,0 1,0 1,0 v 0 H 1 Z"
   id="path338" />
      </g>
     </g><g
   class="com.sun.star.drawing.ClosedBezierShape"
   id="g346"
   clip-path="url(#clipPath971)">
      <g
   id="id9">
       <path
   fill="#000000"
   stroke="none"
   d="M 1,0 C 0,0 0,0 0,0 v 0 -1 h 1 v 0 z"
   id="path343" />
      </g>
     </g><g
   class="com.sun.star.drawing.PolyPolygonShape"
   id="g351"
   clip-path="url(#clipPath963)">
      <g
   id="id10">
       <path
   fill="#000000"
   stroke="none"
   d="M 0,-1 Z"
   id="path348" />
      </g>
     </g><g
   class="com.sun.star.drawing.PolyPolygonShape"
   id="g356"
   clip-path="url(#clipPath955)">
      <g
   id="id11">
       <path
   fill="#000000"
   stroke="none"
   d="M 0,0 H 1 V 0 Z"
   id="path353" />
      </g>
     </g><g
   class="com.sun.star.drawing.PolyPolygonShape"
   id="g361"
   clip-path="url(#clipPath947)">
      <g
   id="id12">
       <path
   fill="#ffffff"
   stroke="none"
   d="M 1437,16440 V 1439 h 8334 l 4167,4167 v 10834 z"
   id="path358" />
      </g>
     </g><g
   class="com.sun.star.drawing.PolyPolygonShape"
   id="g366"
   clip-path="url(#clipPath939)">
      <g
   id="id13">
       <path
   fill="none"
   stroke="#000000"
   stroke-width="375"
   stroke-linejoin="round"
   d="M 1437,16440 V 1439 h 8334 l 4167,4167 v 10834 z"
   id="path363" />
      </g>
     </g><g
   class="com.sun.star.drawing.PolyPolygonShape"
   id="g371"
   clip-path="url(#clipPath931)">
      <g
   id="id14">
       <path
   fill="#b2b2b2"
   stroke="none"
   d="m 9770,1437 4168,4168 H 9770 Z m 0,0 z m 4168,4168 z"
   id="path368" />
      </g>
     </g><g
   class="com.sun.star.drawing.PolyPolygonShape"
   id="g376"
   clip-path="url(#clipPath923)">
      <g
   id="id15">
       <path
   fill="none"
   stroke="#000000"
   stroke-width="375"
   stroke-linejoin="round"
   d="m 9770,1437 4168,4168 H 9770 Z"
   id="path373" />
      </g>
     </g><g
   class="com.sun.star.drawing.CustomShape"
   id="g396"
   clip-path="url(#clipPath907)"
   style="fill:#000080;stroke:#000080;stroke-width:17.8638"
   transform="matrix(1.5728807,0,0,1.5868308,-9593.9142,-9986.0613)">
      <g
   id="id17"
   style="fill:#000080;stroke:#000080;stroke-width:17.8638"><path
   style="font-weight:bold;font-size:3188.61px;line-height:125%;font-family:'Nimbus Sans';-inkscape-font-specification:'Nimbus Sans Bold';text-align:center;letter-spacing:0px;word-spacing:0px;text-anchor:middle;fill:#800000;stroke:#800000;stroke-width:0.632976px;stroke-linejoin:miter"
   d="m 7763.2863,14474.876 h -478.2915 v 465.537 h 478.2915 z m 1447.6286,-1897.223 c -325.2382,0 -593.0815,108.413 -790.7753,322.05 -207.2597,223.202 -325.2382,548.441 -325.2382,895.999 0,347.559 117.9785,675.985 325.2382,895.999 200.8824,216.826 462.3485,322.05 793.9639,322.05 331.6155,0 593.0815,-105.224 793.9635,-322.05 200.883,-213.636 325.239,-551.629 325.239,-880.056 0,-363.501 -117.979,-691.928 -325.239,-911.942 -204.0706,-220.014 -459.1594,-322.05 -797.1521,-322.05 z m 3.1886,408.142 c 392.1991,0 640.9107,318.861 640.9107,822.661 0,478.292 -258.2775,797.153 -640.9107,797.153 -389.0104,0 -640.9106,-318.861 -640.9106,-809.907 0,-491.046 251.9002,-809.907 640.9106,-809.907 z m 1479.5145,1954.618 h 908.754 c 353.936,0 577.138,-82.904 736.569,-271.032 181.751,-216.825 280.598,-529.309 280.598,-892.811 0,-360.313 -98.847,-672.796 -280.598,-892.81 -159.431,-188.128 -379.445,-267.844 -736.569,-267.844 h -908.754 z m 478.292,-398.576 v -1527.344 h 430.462 c 360.313,0 538.875,251.9 538.875,765.266 0,510.178 -178.562,762.078 -538.875,762.078 z m 2748.583,-1527.344 h 679.174 v -398.577 h -1862.148 v 398.577 h 704.683 v 1925.92 h 478.291 z"
   id="text2"
   transform="scale(1.002267,0.99773818)"
   aria-label=".ODT" />
       
       
       
       
       
      </g>
     </g>
   
  
</svg>
